<svg width="123" height="22" viewBox="0 0 123 22" fill="none" xmlns="http://www.w3.org/2000/svg">
<g clip-path="url(#clip0_403_88)">
<path d="M5.73443 5.97027V12.9639L1.91064e-05 6.97921V2.51459C-0.00125515 2.18317 0.0612211 1.85485 0.183745 1.5491C0.306268 1.24334 0.486345 0.966379 0.713303 0.734619L4.14607 4.31953L5.73443 5.97027Z" fill="url(#paint0_linear_403_88)"/>
<path d="M17.0547 6.29893L17.3797 5.95968H5.73503L4.14667 4.31482L0.726562 0.744593C1.17973 0.270389 1.79427 0.00269508 2.43591 0L23.0016 0.076368C23.1444 0.0765856 23.2865 0.0978456 23.4236 0.139519L17.0547 6.29893Z" fill="url(#paint1_linear_403_88)"/>
<path d="M24.508 6.97663L16.2862 15.5372L12.2372 19.739L12.1894 19.6876L10.7136 18.1499C10.3834 17.8058 10.1214 17.397 9.94263 16.9471C9.76388 16.4971 9.67188 16.0148 9.67188 15.5277C9.67188 15.0406 9.76388 14.5583 9.94263 14.1083C10.1214 13.6584 10.3834 13.2496 10.7136 12.9055L11.8391 11.7306L17.0445 6.28932L23.4233 0.121094C23.7378 0.217712 24.0139 0.418249 24.21 0.692596C24.4061 0.966943 24.5116 1.30029 24.5108 1.64259L24.508 6.97663Z" fill="url(#paint2_linear_403_88)"/>
<path opacity="0.88" d="M22.3929 21.9182L14.3738 22.0005L12.1875 19.705L12.2367 19.755L16.2787 15.5547L22.3929 21.9182Z" fill="url(#paint3_linear_403_88)"/>
<path d="M39.7238 5.61719V8.20197H35.1247C33.9626 8.20197 33.4365 8.76151 33.4365 9.92613V18.9993H30.8281V9.51932C30.8281 6.83468 31.7918 5.61719 34.3636 5.61719H39.7238Z" fill="white"/>
<path d="M49.4806 5.61719C52.5757 5.61719 53.8841 7.13868 53.8841 9.72053C53.8841 12.1819 52.6714 13.5742 49.4567 13.5742H43.2664V14.5391C43.2664 15.6038 43.8292 16.3881 45.267 16.3881H53.2538V19.0008H45.2515C41.989 19.0008 40.7031 17.1371 40.7031 14.5949V10.026C40.7031 7.49409 41.9918 5.62012 45.2515 5.62012L49.4806 5.61719ZM43.2594 11.4741H49.3906C50.7974 11.4741 51.318 10.8528 51.318 9.8762C51.318 8.89956 50.7552 8.20491 49.4665 8.20491H45.2459C43.8109 8.20491 43.2439 9.01559 43.2439 10.0539L43.2594 11.4741Z" fill="white"/>
<path d="M63.531 5.61817C66.7935 5.61817 68.0794 7.48186 68.0794 10.024V16.3098C68.0794 18.2366 67.5856 18.9973 65.3838 18.9973H59.2766C56.1815 18.9973 54.8984 17.4435 54.8984 14.9146C54.8984 12.4811 56.0872 11.0653 59.3005 11.0653H65.5077V10.049C65.5077 9.01069 64.9379 8.20001 63.5029 8.20001H55.6919V5.61523L63.531 5.61817ZM65.5077 15.7032V13.1963H59.3498C57.964 13.1963 57.4688 13.7837 57.4688 14.7648C57.4688 15.7458 57.9907 16.3876 59.2893 16.3876H64.7887C65.3107 16.3876 65.5077 16.1849 65.5077 15.7032V15.7032Z" fill="white"/>
<path d="M81.6325 5.61719V8.20197H75.1525C72.879 8.20197 71.8871 9.41946 71.8871 12.3141C71.8871 15.2088 72.8719 16.394 75.1525 16.394H81.6325V19.0066H74.9034C71.4172 19.0066 69.2422 16.8316 69.2422 12.3141C69.2422 7.79663 71.4172 5.62453 74.9034 5.62453L81.6325 5.61719Z" fill="white"/>
<path d="M83.2919 5.6175V2.46289H85.9382V5.62925H89.5496V8.21403H85.9396V14.5497C85.9396 16.0447 86.4573 16.5514 87.694 16.5514H89.5144V19.0128H87.1636C84.468 19.0128 83.3045 17.8967 83.3045 14.3984V8.21403H81.5234V5.62925L83.2919 5.6175Z" fill="white"/>
<path d="M93.4198 0.574219V3.68036H90.7734V0.574219H93.4198ZM93.3916 5.61748V18.9996H90.7734V5.61748H93.3916Z" fill="white"/>
<path d="M97.4984 5.61719L101.85 16.3616C101.897 16.4949 101.986 16.6073 102.103 16.6803C102.22 16.7538 102.357 16.7848 102.493 16.7685C102.635 16.7846 102.779 16.7543 102.904 16.6818C103.028 16.6092 103.126 16.497 103.185 16.3616L107.712 5.61719H110.526L105.481 17.5542C104.935 18.8187 103.964 19.3004 102.487 19.3004C101.01 19.3004 100.014 18.7937 99.5187 17.5542L94.7227 5.61719H97.4984Z" fill="white"/>
<path d="M118.601 5.54492C121.675 5.54492 122.962 7.06935 122.962 9.12837C122.962 10.7115 122.305 11.6823 121.111 12.1963C122.346 12.7294 123.003 13.7208 123.003 15.3216C123.003 17.3218 121.737 18.9065 118.664 18.9065H112.086V16.5684H118.663C119.994 16.5684 120.633 15.9354 120.633 14.8707C120.633 13.8059 119.956 13.2669 118.646 13.2669H114.624V11.1477H118.577C119.908 11.1477 120.564 10.6631 120.564 9.54692C120.564 8.53651 119.969 7.88444 118.594 7.88444H112.097V5.54786L118.601 5.54492Z" fill="white"/>
</g>
<defs>
<linearGradient id="paint0_linear_403_88" x1="2.06671" y1="3.08295" x2="4.86556" y2="13.9654" gradientUnits="userSpaceOnUse">
<stop stop-color="#74A6FF"/>
<stop offset="1" stop-color="#4BEBEB"/>
</linearGradient>
<linearGradient id="paint1_linear_403_88" x1="11.0882" y1="-1.45247" x2="16.9257" y2="8.79911" gradientUnits="userSpaceOnUse">
<stop stop-color="#4076F7"/>
<stop offset="1" stop-color="#5FF6D3"/>
</linearGradient>
<linearGradient id="paint2_linear_403_88" x1="17.0937" y1="0.116688" x2="17.0937" y2="19.739" gradientUnits="userSpaceOnUse">
<stop stop-color="#61FFD0"/>
<stop offset="1" stop-color="#3959FF"/>
</linearGradient>
<linearGradient id="paint3_linear_403_88" x1="1781.91" y1="444.587" x2="1809.67" y2="298.148" gradientUnits="userSpaceOnUse">
<stop stop-color="#74A6FF"/>
<stop offset="1" stop-color="#4BEBEB"/>
</linearGradient>
<clipPath id="clip0_403_88">
<rect width="123" height="22" fill="white"/>
</clipPath>
</defs>
</svg>
