<svg width="31" height="24" viewBox="0 0 31 24" fill="none" xmlns="http://www.w3.org/2000/svg">
<path d="M26.26 2.00996C24.2533 1.07098 22.1076 0.388543 19.8644 0C19.5889 0.498132 19.267 1.16812 19.0452 1.70112C16.6606 1.34247 14.2979 1.34247 11.9572 1.70112C11.7353 1.16812 11.4061 0.498132 11.1282 0C8.88253 0.388543 6.73443 1.07347 4.72775 2.01494C0.680249 8.132 -0.416965 14.0971 0.131642 19.9776C2.81616 21.9826 5.41777 23.2005 7.9755 23.9975C8.60701 23.1283 9.17024 22.2042 9.65545 21.2304C8.73136 20.8792 7.84627 20.4458 7.00995 19.9427C7.23183 19.7783 7.44884 19.6065 7.65853 19.4296C12.7594 21.8157 18.3015 21.8157 23.3414 19.4296C23.5535 19.6065 23.7705 19.7783 23.9899 19.9427C23.1512 20.4483 22.2637 20.8817 21.3396 21.2329C21.8248 22.2042 22.3856 23.1308 23.0195 24C25.5797 23.203 28.1837 21.9851 30.8682 19.9776C31.5119 13.1606 29.7686 7.25031 26.26 2.00996ZM10.3504 16.3611C8.81913 16.3611 7.56343 14.9315 7.56343 13.1905C7.56343 11.4496 8.79231 10.0174 10.3504 10.0174C11.9084 10.0174 13.1641 11.4471 13.1373 13.1905C13.1397 14.9315 11.9084 16.3611 10.3504 16.3611ZM20.6495 16.3611C19.1183 16.3611 17.8626 14.9315 17.8626 13.1905C17.8626 11.4496 19.0915 10.0174 20.6495 10.0174C22.2076 10.0174 23.4633 11.4471 23.4365 13.1905C23.4365 14.9315 22.2076 16.3611 20.6495 16.3611Z" fill="#5865F2"/>
</svg>
